# xmcd CD database file
#
# Track frame offsets:
#	150
#	34634
#	66329
#	90193
#	120815
#	140657
#	175862
#	202706
#	230717
#	267187
#
# Disc length: 4073 seconds
#
# Revision: 2
# Processed by: cddbd v1.4PL0 Copyright (c) Steve Scherf et al.
# Submitted via: CDex 1.50beta9
#
DISCID=7b0fe70a
DTITLE=Actis Band - Garibaldi
DYEAR=2003
DGENRE=Jazz
TTITLE0=Vulcano Boro
TTITLE1=Oued
TTITLE2=Viva Zapata
TTITLE3=Miso Soup
TTITLE4=Porci Padani
TTITLE5=Dulcinea
TTITLE6=Makeba
TTITLE7=Agdz
TTITLE8=Taihenda
TTITLE9=Polpi d'Otranto
EXTD=YEAR: 2003
EXTT0=
EXTT1=
EXTT2=
EXTT3=
EXTT4=
EXTT5=
EXTT6=
EXTT7=
EXTT8=
EXTT9=
PLAYORDER=
